<svg width="215px" height="61px" viewBox="0 0 215 61" version="1.1" xmlns="http://www.w3.org/2000/svg" xmlns:xlink="http://www.w3.org/1999/xlink"><defs><polygon id="path-1" points="0.123 38.94 58.071 38.94 58.071 0.74 0.123 0.74"></polygon><polygon id="path-3" points="128.209 50.572 128.209 0.212 0.218 0.212 0.218 50.572 128.209 50.572"></polygon></defs><g id="Page-1" stroke="none" stroke-width="1" fill="none" fill-rule="evenodd"><g id="logo_topfood_green(1)"><path d="M17.451,43.556 C16.137,43.556 15.822,44.083 13.666,44.083 C10.776,44.083 10.408,40.928 10.408,38.931 L10.408,28.785 L16.085,28.785 C17.872,28.785 19.238,27.629 19.238,25.894 C19.238,24.16 17.767,22.951 16.085,22.951 L10.329,22.951 L10.329,17.56 C10.329,15.87 8.946,14.488 7.257,14.488 C5.568,14.488 4.186,15.87 4.186,17.56 L4.186,22.775 C4.072,22.879 3.995,22.951 3.995,22.951 L3.049,22.951 C1.261,22.951 0,24.212 0,25.947 C0,27.629 1.209,28.785 3.049,28.785 L4.047,28.785 L4.047,38.931 C4.047,45.974 6.728,50.758 13.666,50.758 C15.191,50.758 16.821,50.548 18.134,50.127 C19.606,49.759 20.658,48.392 20.658,46.921 C20.658,45.133 19.133,43.556 17.451,43.556" id="Fill-1" fill="#1A9559"></path><g id="Group-5" transform="translate(21.000000, 22.000000)"><mask id="mask-2" fill="white"><use xlink:href="#path-1"></use></mask><g id="Clip-3"></g><path d="M14.211,0.74 C6.432,0.74 0.123,7.099 0.123,14.882 C0.123,22.606 6.483,28.966 14.211,28.966 C21.989,28.966 28.349,22.606 28.349,14.882 C28.349,7.049 22.044,0.74 14.211,0.74 L14.211,0.74 Z M14.211,22.661 C9.846,22.661 6.432,19.138 6.432,14.882 C6.432,10.517 9.846,6.994 14.211,6.994 C18.571,6.994 22.094,10.517 22.094,14.882 C22.094,19.138 18.521,22.661 14.211,22.661 L14.211,22.661 Z" id="Fill-2" fill="#1A9559" mask="url(#mask-2)"></path><path d="M45.141,0.74 C42.497,0.74 39.71,1.737 37.624,4.043 L37.624,3.951 C37.624,2.186 36.182,0.74 34.416,0.74 C32.65,0.74 31.204,2.186 31.204,3.951 L31.204,35.793 C31.204,37.559 32.65,39 34.416,39 C36.182,39 37.624,37.559 37.624,35.793 L37.624,25.603 C39.833,28.074 42.986,28.966 45.141,28.966 C53.079,28.966 58.071,22.45 58.071,15.143 C58.071,7.154 52.659,0.74 45.141,0.74 L45.141,0.74 Z M44.404,22.661 C39.989,22.661 37.047,18.877 37.047,14.777 C37.047,10.362 40.41,6.889 44.404,6.889 C48.294,6.889 51.556,10.362 51.556,14.777 C51.556,19.138 48.294,22.661 44.404,22.661 L44.404,22.661 Z" id="Fill-4" fill="#1A9559" mask="url(#mask-2)"></path></g><path d="M186.028,12.545 C183.878,12.545 182.802,13.671 182.802,15.922 L182.802,26.395 C180.917,24.277 178.186,23.216 174.612,23.216 C173.088,23.216 171.592,23.522 170.119,24.135 C168.646,24.748 167.333,25.649 166.17,26.839 C165.013,28.033 164.079,29.488 163.365,31.209 C162.656,32.929 162.299,34.901 162.299,37.116 C162.299,39.271 162.656,41.197 163.365,42.899 C164.079,44.606 165.022,46.052 166.198,47.246 C167.374,48.436 168.71,49.346 170.22,49.973 C171.725,50.604 173.271,50.92 174.859,50.92 C177.344,50.92 179.32,50.554 180.794,49.827 C182.262,49.099 183.283,48.207 183.845,47.145 C183.946,47.543 184.051,47.942 184.166,48.335 C184.285,48.733 184.44,49.099 184.641,49.428 C184.838,49.758 185.104,50.032 185.433,50.248 C185.763,50.462 186.193,50.572 186.723,50.572 C187.487,50.572 188.091,50.353 188.535,49.927 C188.984,49.497 189.208,48.866 189.208,48.038 L189.208,15.922 C189.208,13.671 188.146,12.545 186.028,12.545 L186.028,12.545 Z M182.505,40.369 C182.207,41.38 181.782,42.272 181.219,43.05 C180.661,43.828 179.942,44.441 179.069,44.885 C178.195,45.333 177.197,45.558 176.076,45.558 C174.923,45.558 173.889,45.333 172.983,44.885 C172.077,44.441 171.309,43.828 170.682,43.05 C170.055,42.272 169.579,41.38 169.25,40.369 C168.92,39.358 168.756,38.278 168.756,37.116 C168.756,35.99 168.92,34.91 169.25,33.867 C169.579,32.824 170.055,31.913 170.682,31.136 C171.309,30.358 172.077,29.736 172.983,29.273 C173.889,28.811 174.923,28.578 176.076,28.578 C177.197,28.578 178.195,28.811 179.069,29.273 C179.942,29.736 180.661,30.358 181.219,31.136 C181.782,31.913 182.207,32.824 182.505,33.867 C182.802,34.91 182.953,35.99 182.953,37.116 C182.953,38.278 182.802,39.358 182.505,40.369 L182.505,40.369 Z" id="Fill-6" fill="#F6BC3D"></path><path d="M114.595,22.74 C106.813,22.74 100.507,29.099 100.507,36.882 C100.507,44.606 106.867,50.966 114.595,50.966 C122.374,50.966 128.734,44.606 128.734,36.882 C128.734,29.049 122.424,22.74 114.595,22.74 L114.595,22.74 Z M114.595,44.661 C110.23,44.661 106.813,41.138 106.813,36.882 C106.813,32.517 110.23,28.994 114.595,28.994 C118.956,28.994 122.479,32.517 122.479,36.882 C122.479,41.138 118.905,44.661 114.595,44.661 L114.595,44.661 Z" id="Fill-7" fill="#F6BC3D"></path><path d="M145.32,22.74 C137.542,22.74 131.236,29.099 131.236,36.882 C131.236,44.606 137.596,50.966 145.32,50.966 C153.103,50.966 159.463,44.606 159.463,36.882 C159.463,29.049 153.153,22.74 145.32,22.74 L145.32,22.74 Z M145.32,44.661 C140.959,44.661 137.542,41.138 137.542,36.882 C137.542,32.517 140.959,28.994 145.32,28.994 C149.685,28.994 153.208,32.517 153.208,36.882 C153.208,41.138 149.63,44.661 145.32,44.661 L145.32,44.661 Z" id="Fill-8" fill="#F6BC3D"></path><path d="M99.949,27.266 C99.949,29 98.643,30.158 96.938,30.158 L84.489,30.158 C82.732,30.158 81.575,29 81.575,27.321 C81.575,25.587 82.78,24.324 84.489,24.324 L85.394,24.324 C85.394,24.324 85.398,24.32 85.402,24.315 L91.441,24.315 L91.441,24.324 L96.938,24.324 C98.546,24.324 99.949,25.532 99.949,27.266" id="Fill-9" fill="#F6BC3D"></path><g id="Group-13" transform="translate(86.000000, 0.000000)"><mask id="mask-4" fill="white"><use xlink:href="#path-3"></use></mask><g id="Clip-11"></g><path d="M14.393,12.655 C13.075,12.234 11.447,12.024 9.923,12.024 C3.06,12.024 0.273,16.704 0.218,23.627 L0.218,47.145 C0.218,49.428 1.339,50.572 3.59,50.572 C5.645,50.572 6.67,49.428 6.67,47.145 L6.67,23.627 C6.697,21.628 7.136,18.699 9.923,18.699 C12.078,18.699 12.394,19.226 13.707,19.226 C15.39,19.226 16.914,17.647 16.914,15.862 C16.914,14.389 15.862,13.021 14.393,12.655" id="Fill-10" fill="#F6BC3D" mask="url(#mask-4)"></path><path d="M108.109,11.669 C109.516,9.012 112.156,7.383 114.552,6.402 C114.94,6.244 115.207,6.799 114.838,6.999 C108.684,10.344 107.075,14.942 106.758,16.091 C106.716,16.244 106.787,16.406 106.93,16.477 L106.936,16.48 C107.121,16.572 107.344,16.473 107.402,16.274 C108.52,12.407 110.813,12.26 111.493,12.307 C111.664,12.318 111.837,12.325 112.008,12.318 C123.581,11.82 127.296,3.358 128.192,0.649 C128.282,0.377 128.005,0.123 127.744,0.242 C125.87,1.099 122.331,1.145 122.331,1.145 C107.718,0.905 108.109,11.669 108.109,11.669" id="Fill-12" fill="#F6BC3D" mask="url(#mask-4)"></path></g><path d="M198.797,16.437 C200.258,17.371 202.046,17.439 203.528,17.251 C203.767,17.22 203.744,16.865 203.502,16.869 C199.462,16.938 197.348,15.087 196.863,14.6 C196.798,14.535 196.788,14.433 196.839,14.358 L196.841,14.354 C196.908,14.255 197.048,14.242 197.134,14.326 C198.793,15.949 199.986,15.371 200.315,15.155 C200.398,15.101 200.482,15.048 200.57,15.003 C206.522,11.966 210.79,15.159 212.01,16.264 C212.132,16.376 212.065,16.582 211.901,16.596 C210.716,16.698 208.926,17.681 208.926,17.681 C201.658,21.952 198.797,16.437 198.797,16.437" id="Fill-14" fill="#F6BC3D"></path></g></g></svg>
