<?xml version="1.0" encoding="UTF-8" standalone="no"?>
<svg
   xmlns:dc="http://purl.org/dc/elements/1.1/"
   xmlns:cc="http://creativecommons.org/ns#"
   xmlns:rdf="http://www.w3.org/1999/02/22-rdf-syntax-ns#"
   xmlns:svg="http://www.w3.org/2000/svg"
   xmlns="http://www.w3.org/2000/svg"
   viewBox="0 0 668 141.33333"
   height="141.33333"
   width="668"
   xml:space="preserve"
   id="svg2"
   version="1.1"><metadata
     id="metadata8"><rdf:RDF><cc:Work
         rdf:about=""><dc:format>image/svg+xml</dc:format><dc:type
           rdf:resource="http://purl.org/dc/dcmitype/StillImage" /></cc:Work></rdf:RDF></metadata><defs
     id="defs6" /><g
     transform="matrix(1.3333333,0,0,-1.3333333,0,141.33333)"
     id="g10"><g
       transform="scale(0.1)"
       id="g12"><path
         id="path14"
         style="fill:#a7a5a6;fill-opacity:1;fill-rule:evenodd;stroke:none"
         d="m 39.9453,261.891 v 10.047 H 359.262 v 34.433 h 10.047 v -44.48 z M 70.7305,972.82 c -5.6524,0.387 -11.4414,0.571 -17.3711,0.571 H 39.9453 v 9.195 c 3.2774,-0.297 6.543,-0.691 9.7852,-1.18 6.5156,-0.988 12.7812,-3.004 18.3437,-6.59 0.9375,-0.601 1.8242,-1.273 2.6563,-1.996 z M 582.746,887.242 c 10.09,-26.867 15.137,-56.941 15.137,-90.711 0,-31.238 -4.942,-61.426 -14.824,-90.371 -9.887,-28.945 -25.95,-54.539 -48.364,-76.781 -22.414,-22.238 -51.715,-40.067 -87.898,-53.305 -36.188,-13.238 -80.488,-19.945 -132.91,-19.945 H 247.164 V 377.152 l 0.012,-1.691 c -2.18,2.285 -3.899,4.973 -5.313,7.926 -3.84,7.965 -4.742,18.547 -4.742,27.246 v 155.543 h 43.285 c 47.074,0 96.508,5.105 140.957,21.371 35.637,13.039 69.27,31.805 96.356,58.68 24.597,24.406 42.843,53.066 54.035,85.843 10.797,31.621 16.086,64.524 16.086,97.946 0,19.257 -1.559,38.425 -5.094,57.226 z M 4935.47,335.02 c 0.44,1.585 0.81,3.191 1.16,4.792 l 0.53,2.407 -4.79,-7.199 z m -237.59,-63.082 c -0.17,-0.653 -0.37,-1.282 -0.59,-1.872 -1,-2.504 -2.27,-4.488 -3.88,-5.953 -1.65,-1.465 -3.54,-2.551 -5.71,-3.211 -2.13,-0.617 -4.45,-0.949 -6.86,-0.949 -2.45,0 -4.82,0.332 -6.99,0.949 -2.13,0.66 -4.02,1.746 -5.67,3.211 -1.6,1.465 -2.88,3.449 -3.78,5.953 -0.22,0.59 -0.42,1.219 -0.59,1.872 z m 297.38,35.925 h 11.03 l -1.37,-45.972 h -115.71 v 10.047 h 104.98 z m -10.48,106.028 h 19.86 v -11.625 l -24.9,-37.481 h -27.59 z M 4880.36,271.938 v -10.047 h -4.02 c -8.22,0 -14.98,0.238 -20.31,0.757 -5.3,0.52 -9.88,1.704 -13.76,3.59 -2.88,1.41 -5.58,3.313 -8.12,5.7 z m -94.76,2.515 0.26,-0.043 c 2.84,-0.426 5.81,-0.613 8.93,-0.613 h 0.85 v -11.906 h -76.3 v 10.047 h 66.26 z m -24.1,202.848 h 10.05 v -6.485 h -10.05 z m 49.82,-99.965 c 0.75,0.914 1.45,1.793 2.09,2.633 1.98,2.597 3.59,4.863 4.77,6.801 1.23,1.937 2.03,3.636 2.5,5.152 0.48,1.558 0.71,2.976 0.71,4.39 0,1.485 -0.43,2.626 -1.28,3.45 3.46,3.574 7.16,7.027 10.98,9.808 1.41,1.032 3.65,2.442 5.5,2.461 l -1.96,-28.398 h 3.12 c -2.45,-2.469 -4.95,-5.176 -7.52,-8.11 l -10.07,-11.304 z M 4580.2,829.715 v -44.481 h -13.95 c -11.65,0 -22.77,-0.882 -33.36,-2.293 -10.41,-1.589 -19.77,-4.945 -27.71,-9.886 -7.77,-4.942 -14.12,-12.176 -18.71,-21.711 -4.77,-9.528 -7.06,-22.063 -7.06,-37.414 V 377.152 l 0.01,-1.711 c -2.21,2.375 -3.96,5.172 -5.39,8.098 -3.85,7.836 -4.67,18.516 -4.67,27.094 V 747.41 c 0,8.512 0.85,19.317 4.67,27.09 2.35,4.785 5.58,9.324 10.15,12.199 5.6,3.524 12.02,5.59 18.54,6.52 9.95,1.422 20,2.062 30.05,2.062 h 37.38 v 34.434 z m -10.05,-523.344 h 10.05 v -44.48 h -290.01 v 10.047 h 279.96 z M 4323.12,528.77 H 4100.27 V 377.152 l 0.01,-1.691 c -2.17,2.285 -3.89,4.969 -5.31,7.922 -3.84,7.969 -4.74,18.547 -4.74,27.25 v 128.183 h 232.89 z M 4180.25,306.457 c 2.32,-0.055 4.66,-0.086 7.04,-0.086 h 3 v -44.48 h -290 v 10.047 h 279.96 z m -249.09,478.129 c -5.52,0.434 -11.16,0.648 -16.93,0.648 h -13.94 v 9.071 c 3.32,-0.348 6.64,-0.793 9.94,-1.348 6.41,-1.078 13.17,-3.031 18.64,-6.664 0.8,-0.531 1.56,-1.098 2.29,-1.707 z m 249.09,45.129 h 10.04 v -44.481 h -3 c -11.83,0 -22.95,-0.882 -33.36,-2.293 -10.59,-1.589 -19.77,-4.945 -27.71,-9.886 -7.94,-4.942 -14.3,-12.176 -18.88,-21.711 -4.6,-9.528 -7.07,-22.063 -7.07,-37.414 v -79.7 h -10.04 v 113.18 c 0,8.641 0.93,19.344 4.74,27.25 2.33,4.86 5.53,9.102 10.15,11.981 5.72,3.558 11.98,5.629 18.64,6.578 9.95,1.418 20,2.062 30.05,2.062 h 26.44 z m 129.93,-45.125 c -5.49,0.43 -11.15,0.644 -16.98,0.644 h -3.01 v 7.543 c 6.22,-1.129 12.43,-3.066 17.74,-6.547 0.78,-0.515 1.53,-1.058 2.25,-1.64 z M 3447.55,415.453 c 0,-6.848 0.3,-13.344 0.9,-19.484 -9.06,15.047 -10.94,36.625 -10.94,52.969 0,15.781 1.61,32.355 6.7,47.374 4.02,11.868 10.52,21.715 19.93,29.977 11.16,9.813 26.01,16.18 40.12,20.387 22.04,6.574 46.69,9.094 69.59,10.172 l 43.24,2.023 v -11.59 l -10.86,-0.508 c -30,-1.41 -55.06,-5.117 -75.19,-11.121 -20.12,-6 -36.54,-14.468 -48.89,-25.238 -12.36,-10.941 -21.18,-24.184 -26.65,-40.066 -5.3,-15.887 -7.95,-34.243 -7.95,-54.895 z m 128.15,371.902 c -20.3,0 -36.72,-3.003 -49.25,-8.648 -12.7,-5.652 -22.41,-13.594 -29.47,-24.004 -7.07,-10.418 -11.83,-22.598 -14.3,-36.715 -2.47,-14.125 -3.53,-29.48 -3.53,-46.074 -25.74,0 -46.17,3.953 -61.17,11.617 9.32,-1.14 18.68,-1.57 27.69,-1.57 h 23.44 v 23.437 c 0,14 0.76,28.223 3.18,42.028 1.72,9.851 4.96,19.289 10.6,27.601 4.95,7.293 11.65,12.184 19.65,15.77 11.8,5.277 26.91,6.601 39.67,6.601 13.17,0 29.71,-1.375 41.71,-7.289 2.01,-0.992 3.92,-2.074 5.74,-3.257 -4.44,0.336 -9.09,0.503 -13.96,0.503 z m 183.38,-37.738 c 0.94,-2.316 1.81,-4.683 2.66,-7.097 8.12,-23.301 12,-51.715 12,-85.606 V 382.445 c 0,-4.289 0.1,-8.371 0.31,-12.238 -0.45,0.41 -0.89,0.855 -1.32,1.332 -3.06,3.418 -4.95,9.168 -6.07,13.512 -2.47,9.621 -2.96,20.988 -2.96,30.875 v 274.472 c 0,19.516 -1.2,39.641 -4.62,59.219 z m 73.45,-443.094 c 2.27,-0.101 4.62,-0.152 7.04,-0.152 h 3.01 v -44.48 h -143.15 l -1.83,10.047 h 134.93 z m -192.94,2.766 c -9.65,-11.215 -20.33,-21.047 -31.77,-29.215 -12.36,-9.004 -26.47,-16.062 -42.18,-21.004 -15.71,-4.941 -34.6,-7.593 -56.66,-7.593 -23.3,0 -45.19,3.355 -65.31,10.238 -2.92,0.973 -5.78,2.023 -8.59,3.14 13.32,-2.265 26.85,-3.332 40.42,-3.332 21.32,0 43.27,2.25 63.69,8.672 17.5,5.504 33.98,13.614 48.86,24.352 14.27,10.293 27.16,22.453 38.39,35.988 2.55,3.07 5.08,6.156 7.59,9.258 z m -583.53,463.063 c -27.54,0 -50.49,-4.59 -69.02,-13.77 -18.35,-9.18 -33.18,-22.945 -44.13,-41.656 -11.12,-18.531 -18.88,-42.008 -23.65,-70.25 -4.58,-28.238 -6.88,-61.602 -6.88,-99.903 0,-36.89 2.3,-69.367 6.88,-97.605 0.36,-2.145 0.74,-4.258 1.13,-6.348 -5.48,14.063 -9.07,28.992 -11.49,43.649 -5.08,30.769 -6.57,62.636 -6.57,93.789 0,31.804 1.37,64.656 6.57,96.07 3.52,21.234 9.65,43.496 20.69,62.137 8.43,14.223 19.6,25.242 34.41,32.613 17.72,8.82 39.02,11.317 58.57,11.317 16.64,0 33.77,-2.688 48.51,-10.735 -4.85,0.457 -9.85,0.692 -15.02,0.692 z m 234.4,-225.579 c 0,-51.007 -4.77,-95.136 -14.3,-132.378 -9.53,-37.243 -23.3,-67.782 -41.66,-91.961 -18.18,-24.18 -40.77,-42.008 -67.77,-53.481 -26.84,-11.652 -57.72,-17.476 -92.5,-17.476 -20.29,0 -38.82,2.293 -55.42,6.707 -6.66,1.867 -13.09,4.019 -19.27,6.476 13.62,-2.219 27.47,-3.137 41.21,-3.137 34.86,0 69.58,5.567 101.75,19.379 31.08,13.352 56.82,33.883 77.22,60.883 22.36,29.602 36.51,64.547 45.66,100.281 11.42,44.641 15.03,92.231 15.03,138.192 0,40.539 -2.84,82.39 -11.51,122.289 2.65,-7.813 5.06,-15.965 7.26,-24.453 9.53,-36.887 14.3,-80.66 14.3,-131.321 z m -380.66,-242.621 0.46,-10.664 c 0.35,-6.531 0.71,-13.414 0.88,-20.476 0.18,-7.063 0.36,-13.766 0.54,-19.946 0,-6.179 0.17,-11.828 0.35,-16.769 0.17,-4.942 0.35,-8.824 0.35,-11.649 V 123.336 l 0.01,-2.024 c -2.28,2.422 -4.09,5.254 -5.6,8.309 -3.76,7.57 -4.46,18.918 -4.46,27.195 v 101.317 c 0,4.152 -0.22,8.34 -0.37,12.488 -0.19,5.418 -0.25,10.844 -0.33,16.266 -0.1,6.73 -0.37,13.461 -0.54,20.191 -0.04,1.551 -0.09,3.106 -0.14,4.66 2.87,-2.621 5.82,-5.148 8.85,-7.586 z m 82.55,-252.0387 c 2.27,-0.0547 4.56,-0.086 6.87,-0.086 h 3.17 V 7.54688 H 2717.34 V 17.5898 h 275.01 z M 2742.61,784.59 c -5.49,0.43 -11.14,0.644 -16.97,0.644 h -13.42 v 9.012 c 3.14,-0.336 6.29,-0.762 9.41,-1.289 6.55,-1.102 13.14,-3.055 18.74,-6.727 0.79,-0.515 1.54,-1.058 2.24,-1.64 z m -14.17,-237.817 c 0,-99.546 -21.18,-173.679 -63.37,-222.398 -42.18,-48.543 -103.96,-72.898 -185.33,-72.898 -35.82,0 -68.1,5.402 -96.97,15.925 20.84,-4.066 42.12,-5.879 63.49,-5.879 77.45,0 151.01,20.993 203.04,80.977 55.43,63.898 69.09,156.027 69.09,237.758 0,35.312 -2.65,71.453 -10.05,106.289 1.16,-3.348 2.27,-6.758 3.34,-10.219 11.11,-36.715 16.76,-79.781 16.76,-129.555 z m -392.02,0 c 0,-39.183 2.65,-73.953 7.76,-103.961 0.44,-2.523 0.89,-5.015 1.37,-7.472 -5.49,14.539 -9.19,29.937 -11.75,44.898 -5.59,32.809 -7.42,66.77 -7.42,100.02 0,33.058 1.79,66.832 7.42,99.445 3.94,22.813 10.54,46.438 22.12,66.637 8.68,15.133 20.14,27.348 35.46,35.785 16.85,9.281 36.95,12.094 55.94,12.094 18.47,0 37.73,-2.657 54.35,-11.164 -6.65,0.75 -13.61,1.121 -20.87,1.121 -26.65,0 -49.07,-4.942 -67.25,-15.004 -18.35,-10.059 -33.18,-24.887 -44.48,-44.656 -11.47,-19.942 -19.77,-44.657 -24.89,-74.313 -5.11,-29.648 -7.76,-64.066 -7.76,-103.43 z m -164.9,282.942 6.18,-169.625 h -51.72 l -1.46,10.047 h 44 l -5.81,159.578 z M 2046.99,781 h -87.45 V 377.152 l 0.01,-1.855 c -2.29,2.367 -4.07,5.183 -5.57,8.242 -3.77,7.672 -4.49,18.707 -4.49,27.094 v 380.41 h 63.4 c 7.35,0 16.5,-0.418 23.51,-2.805 4.09,-1.394 7.46,-3.484 10.24,-6.812 z m 13.7,-474.629 h 10.04 v -44.48 h -311.35 v 10.047 h 301.31 z M 1803.24,781 h -30.98 c -12,0 -22.24,-1.238 -30.54,-4.062 -8.11,-2.825 -15.17,-7.411 -20.65,-13.946 -5.47,-6.527 -9.88,-15.355 -13.41,-26.472 -3.36,-10.946 -6.53,-24.711 -9.36,-41.305 l -5.65,-35.125 h -51.71 l 0.36,10.047 h 37.84 l 8.82,54.843 c 2.05,12.758 4.74,25.696 8.59,38.043 1.93,6.176 4.8,13.379 9,18.399 2.76,3.285 6.28,5.449 10.32,6.84 6.86,2.359 15.72,2.781 22.91,2.781 h 64.46 z M 1393.99,251.477 c -34.66,0 -66.74,5.332 -96.08,15.984 20.55,-4.051 41.51,-5.938 62.6,-5.938 28.34,0 57.47,2.528 84.89,10.004 21.71,5.922 43.55,14.137 62.51,26.411 16.19,10.468 30.7,23.441 41.01,39.867 9.16,14.586 14.91,30.613 15.06,47.929 1.75,-2.445 3.33,-5.136 4.75,-8.054 3.53,-6.883 5.3,-15.176 5.3,-24.711 0,-12.176 -3.89,-24.18 -11.48,-36.184 -7.59,-12.176 -18.88,-22.945 -33.88,-32.656 -15.01,-9.703 -33.72,-17.473 -55.96,-23.473 -22.41,-6.176 -48.71,-9.179 -78.72,-9.179 z m 168.81,519.14 c 6.81,-11.433 10.17,-24.301 10.17,-38.687 0,-24.535 -7.94,-41.653 -23.83,-51.719 -15.89,-10.059 -39.53,-15.004 -70.78,-15.004 0,4.082 -0.09,8.109 -0.25,12.082 17.81,2.406 35.42,7.313 50.09,16.606 25.23,15.984 34.72,42.558 34.72,71.515 0,1.75 -0.04,3.488 -0.12,5.207 z m -169.8,16.66 c -1.53,0.047 -3.08,0.078 -4.66,0.078 -20.29,0 -38.65,-3.886 -55.07,-11.472 -16.41,-7.594 -30.36,-20.653 -42.18,-39.363 -11.65,-18.532 -20.65,-43.598 -26.83,-74.84 -6.18,-31.418 -9.35,-70.778 -9.35,-117.907 0,-33.878 2.54,-63.855 7.63,-89.941 -14.47,38.66 -17.68,85.727 -17.68,123.422 0,37.234 1.69,76.773 8.91,113.375 4.39,22.281 11.45,47.5 23.66,66.875 8.03,12.73 18.34,24.18 32.19,30.586 14.27,6.59 29.59,9.308 45.24,9.308 10.91,0 23.13,-1.476 32.84,-6.808 1.85,-1.02 3.62,-2.121 5.3,-3.313 z m -528.09,-4.16 c -39.183,0 -69.543,-15.883 -90.722,-47.832 -14.043,-21.183 -24.286,-48.812 -30.672,-82.871 h -14.743 c 3.938,35.793 12.559,74.879 31.465,103.402 17.102,25.789 40.379,37.344 71.192,37.344 14.402,0 29.453,-2.285 41.914,-9.941 l 0.601,-0.371 c -2.937,0.179 -5.949,0.269 -9.035,0.269 z m 13.063,-531.64 c -34.176,0 -65.254,5.199 -93.239,15.468 19.614,-3.746 39.645,-5.422 59.758,-5.422 29.625,0 60.043,2.954 88.543,11.375 22.473,6.641 45.074,15.684 64.633,28.762 16.212,10.844 31.172,24.348 41.492,41.043 7.86,12.692 13.55,26.781 14.63,41.695 1.3,-1.527 2.59,-3.238 3.87,-5.128 4.23,-6.532 6.35,-14.297 6.35,-23.301 0,-10.59 -3.71,-22.063 -11.3,-34.414 -7.59,-12.184 -19.23,-23.477 -34.59,-33.895 -15.53,-10.238 -34.948,-18.887 -58.249,-25.769 -23.297,-6.883 -50.652,-10.414 -81.898,-10.414 z m 191.557,453.171 c 0.89,-2.523 1.76,-5.074 2.6,-7.668 10.06,-31.414 15.18,-68.128 15.18,-109.785 V 538.48 H 734.652 c 0.571,-31.367 3.262,-59.218 8.059,-83.546 -2.84,7.656 -5.203,15.476 -7.176,23.246 -5.758,22.679 -8.699,46.648 -10.055,70.343 h 351.79 v 72.153 c 0,27.918 -2.15,56.375 -7.74,83.972 z M 364.441,964.016 c -13.746,2.129 -28.867,3.199 -45.261,3.199 H 247.164 V 663.176 h -10.043 v 314.082 h 48.574 c 22.582,0 47.223,-2.059 68.731,-9.352 3.414,-1.156 6.758,-2.449 10.015,-3.89" /><path
         id="path16"
         style="fill:#231f20;fill-opacity:1;fill-rule:evenodd;stroke:none"
         d="m 6.46484,295.375 v 44.48 H 19.8789 c 12.0039,0 23.3008,0.883 33.8867,2.645 10.418,1.59 19.5938,5.125 27.5352,10.594 7.9453,5.293 14.1211,12.883 18.7112,22.945 4.414,10.063 6.707,23.297 6.707,39.887 v 519.109 c 0,15.535 -2.293,28.063 -7.0588,37.418 -4.5899,9.531 -10.9454,16.945 -18.8868,22.067 -7.9414,5.121 -17.1211,8.47 -27.539,10.06 -10.5899,1.59 -21.7071,2.3 -33.3555,2.3 H 6.46484 v 44.47 H 303.699 c 44.481,0 83.137,-5.12 115.789,-15.17 32.832,-10.24 59.836,-24.89 81.196,-43.957 21.355,-19.239 37.418,-42.36 47.832,-69.539 10.589,-27.36 15.882,-58.075 15.882,-92.668 0,-31.243 -4.941,-61.426 -14.824,-90.371 -9.886,-28.95 -25.945,-54.543 -48.363,-76.782 -22.414,-22.238 -51.715,-40.066 -87.902,-53.308 -36.18,-13.239 -80.485,-19.942 -132.903,-19.942 h -66.722 v -178.98 c 0,-15.531 2.468,-27.887 7.058,-37.418 4.59,-9.531 10.942,-16.59 18.891,-21.535 7.941,-4.766 17.117,-7.942 27.711,-9.532 10.41,-1.589 21.531,-2.293 33.355,-2.293 h 35.125 v -44.48 z M 4629.5,312.668 c 0,3.684 0.47,6.758 1.42,9.211 0.9,2.457 2.17,4.398 3.78,5.906 1.65,1.469 3.54,2.508 5.67,3.168 2.17,0.66 4.54,0.945 6.99,0.945 2.41,0 4.72,-0.285 6.85,-0.945 2.18,-0.66 4.06,-1.699 5.72,-3.168 1.61,-1.508 2.88,-3.449 3.87,-5.906 0.95,-2.453 1.42,-5.527 1.42,-9.211 0,-3.594 -0.47,-6.613 -1.42,-9.121 -0.99,-2.504 -2.26,-4.488 -3.87,-5.953 -1.66,-1.461 -3.54,-2.551 -5.72,-3.211 -2.13,-0.613 -4.44,-0.945 -6.85,-0.945 -2.45,0 -4.82,0.332 -6.99,0.945 -2.13,0.66 -4.02,1.75 -5.67,3.211 -1.61,1.465 -2.88,3.449 -3.78,5.953 -0.95,2.508 -1.42,5.527 -1.42,9.121 z m 310.66,-1.086 c 3.31,0 6.05,0.613 8.22,1.938 2.18,1.277 3.97,2.976 5.44,5.101 1.41,2.129 2.55,4.582 3.45,7.418 0.85,2.789 1.65,5.766 2.26,8.789 l 1.42,6.52 h 11.86 l -1.37,-45.973 h -115.71 v 11.34 l 82.21,124.453 h -44.27 c -3.69,0 -6.76,-0.477 -9.17,-1.465 -2.36,-0.945 -4.35,-2.41 -5.86,-4.344 -1.51,-1.941 -2.78,-4.347 -3.73,-7.183 -0.99,-2.883 -1.98,-6.192 -2.98,-9.973 l -0.28,-1.133 h -11.91 l 2.79,40.305 h 108.63 V 435.75 l -82.5,-124.168 z m -163.36,75.031 37.81,-56.086 c 4.91,-7.558 9.77,-13.324 14.59,-17.293 4.87,-3.964 10.44,-5.953 16.82,-5.953 h 0.86 v -11.906 h -4.02 c -8.22,0 -14.98,0.238 -20.32,0.758 -5.29,0.519 -9.88,1.699 -13.75,3.586 -3.87,1.894 -7.41,4.679 -10.68,8.32 -3.21,3.637 -6.8,8.598 -10.77,14.883 l -28.39,44.41 -20.89,-15.492 v -25.61 c 0,-4.16 0.62,-7.464 1.84,-10.019 1.28,-2.551 2.94,-4.441 5.06,-5.766 2.13,-1.273 4.63,-2.125 7.42,-2.55 2.83,-0.426 5.81,-0.614 8.93,-0.614 h 0.85 v -11.906 h -76.31 v 11.906 h 2.22 c 3.26,0 6.29,0.239 9.07,0.711 2.84,0.426 5.29,1.371 7.33,2.832 2.08,1.418 3.78,3.449 5.01,6.145 1.22,2.691 1.84,6.234 1.84,10.676 v 151.953 c 0,4.156 -0.62,7.511 -1.84,10.062 -1.23,2.555 -2.93,4.492 -5.06,5.86 -2.12,1.418 -4.58,2.316 -7.42,2.691 -2.78,0.43 -5.76,0.664 -8.93,0.664 h -2.22 v 11.906 h 52.21 V 401.398 c 0,-2.597 -0.04,-5.855 -0.14,-9.871 -0.1,-4.019 -0.24,-7.988 -0.42,-11.859 -0.19,-4.445 -0.38,-9.074 -0.57,-13.988 l 35.44,38.793 c 3.06,3.402 5.57,6.379 7.55,8.976 1.99,2.602 3.6,4.863 4.78,6.805 1.22,1.934 2.03,3.637 2.5,5.148 0.47,1.563 0.71,2.977 0.71,4.395 0,2.41 -1.14,3.922 -3.4,4.629 -2.27,0.711 -5.77,1.043 -10.44,1.043 v 11.906 h 62.55 v -11.906 c -6.57,0 -12.99,-2.317 -19.32,-6.946 -6.34,-4.585 -13.19,-11.105 -20.56,-19.515 z m -230.09,476.586 v -44.484 h -13.94 c -11.65,0 -22.77,-0.879 -33.36,-2.293 -10.41,-1.586 -19.77,-4.942 -27.71,-9.883 -7.77,-4.941 -14.13,-12.18 -18.72,-21.711 -4.76,-9.531 -7.05,-22.062 -7.05,-37.418 V 410.633 c 0,-15.531 2.29,-27.887 7.05,-37.418 4.59,-9.531 10.95,-16.59 18.72,-21.535 7.94,-4.766 17.3,-7.942 27.71,-9.532 10.59,-1.589 21.71,-2.293 33.36,-2.293 h 13.94 v -44.48 h -290 v 44.48 h 3 c 11.83,0 22.95,0.704 33.36,2.293 10.59,1.59 19.77,4.766 27.71,9.532 7.94,4.945 14.3,12.004 18.89,21.535 4.59,9.531 6.88,21.887 6.88,37.418 V 562.25 H 4066.79 V 410.633 c 0,-15.531 2.47,-27.887 7.06,-37.418 4.59,-9.531 10.94,-16.59 18.88,-21.535 7.95,-4.766 17.13,-7.942 27.72,-9.532 10.41,-1.589 21.53,-2.293 33.36,-2.293 h 3 v -44.48 h -290 v 44.48 h 13.94 c 11.65,0 22.77,0.704 33.36,2.293 10.42,1.59 19.77,4.766 27.71,9.532 7.77,4.945 14.12,12.004 18.71,21.535 4.77,9.531 7.06,21.887 7.06,37.418 v 335.719 c 0,15.531 -2.29,27.886 -7.06,37.418 -4.59,9.531 -10.94,16.769 -18.71,22.062 -7.94,5.121 -17.29,8.473 -27.71,10.238 -10.59,1.766 -21.71,2.645 -33.36,2.645 h -13.94 v 44.484 h 290 v -44.484 h -3 c -11.83,0 -22.95,-0.879 -33.36,-2.293 -10.59,-1.586 -19.77,-4.942 -27.72,-9.883 -7.94,-4.941 -14.29,-12.18 -18.88,-21.711 -4.59,-9.531 -7.06,-22.062 -7.06,-37.418 V 610.793 h 279.76 v 135.559 c 0,15.531 -2.29,27.886 -6.88,37.418 -4.59,9.531 -10.95,16.769 -18.89,22.062 -7.94,5.121 -17.12,8.473 -27.71,10.238 -10.41,1.766 -21.53,2.645 -33.36,2.645 h -3 v 44.484 z M 3414.07,448.938 c 0,-33.012 6.89,-57.895 20.83,-74.133 14.12,-16.418 35.65,-24.535 64.95,-24.535 21.36,0 40.78,3.351 58.25,10.238 17.3,6.883 32.13,16.765 44.48,29.472 12.18,12.711 21.54,28.247 28.06,46.602 6.54,18.18 9.89,38.656 9.89,61.07 v 85.782 l -67.78,-3.176 c -30,-1.41 -55.07,-5.117 -75.19,-11.121 -20.12,-6 -36.54,-14.469 -48.89,-25.239 -12.36,-10.941 -21.19,-24.183 -26.65,-40.066 -5.3,-15.887 -7.95,-34.246 -7.95,-54.894 z m 128.14,371.898 c -20.29,0 -36.71,-3 -49.24,-8.648 -12.71,-5.649 -22.42,-13.59 -29.48,-24.004 -7.06,-10.414 -11.82,-22.594 -14.29,-36.715 -2.48,-14.117 -3.53,-29.477 -3.53,-46.071 -29.31,0 -51.72,5.122 -67.08,15.004 -15.35,10.063 -22.94,27.36 -22.94,51.719 0,18.356 4.94,33.887 15,46.594 9.89,12.711 23.65,23.125 41.12,31.246 17.3,8.117 37.61,14.117 60.72,17.824 23.13,3.887 47.66,5.649 73.96,5.649 32.3,0 60.72,-3.18 84.73,-9.528 24.18,-6.355 44.3,-16.769 60.53,-31.242 16.25,-14.476 28.42,-33.363 36.54,-56.664 8.13,-23.293 12,-51.711 12,-85.602 V 415.926 c 0,-14.824 1.24,-27.18 3.71,-36.711 2.47,-9.707 6.18,-17.473 11.3,-23.301 5.29,-5.82 12,-10.059 20.47,-12.527 8.48,-2.297 18.54,-3.532 30.36,-3.532 h 3 v -44.48 h -143.14 l -16.59,91.078 h -8.83 c -10.94,-14.824 -21.71,-28.418 -32.12,-40.949 -10.24,-12.356 -21.71,-23.125 -34.07,-31.945 -12.36,-9.004 -26.48,-16.063 -42.19,-21.008 -15.7,-4.942 -34.59,-7.59 -56.65,-7.59 -23.3,0 -45.19,3.351 -65.31,10.234 -20.12,6.707 -37.6,16.946 -52.25,30.891 -14.65,13.945 -26.12,31.594 -34.42,52.773 -8.29,21.184 -12.35,46.25 -12.35,75.196 0,56.304 19.95,97.961 60.01,125.14 39.89,27.364 100.43,42.188 181.45,44.485 l 87.9,3.175 v 63.543 c 0,19.063 -1.06,36.54 -3.18,52.598 -1.94,15.887 -6.53,29.832 -13.41,41.301 -6.89,11.473 -16.77,20.476 -29.65,26.832 -12.89,6.351 -30.36,9.707 -52.08,9.707 z m -519.64,-15.004 c -27.53,0 -50.48,-4.586 -69.01,-13.766 -18.36,-9.179 -33.18,-22.945 -44.13,-41.656 -11.12,-18.535 -18.88,-42.012 -23.65,-70.25 -4.59,-28.242 -6.89,-61.601 -6.89,-99.902 0,-36.891 2.3,-69.367 6.89,-97.61 4.77,-28.418 12.71,-52.07 23.83,-71.488 11.3,-19.238 26.12,-33.887 44.48,-43.594 18.53,-9.886 41.65,-14.828 69.54,-14.828 23.48,0 43.42,4.942 59.83,14.828 16.25,9.707 29.84,24.356 40.25,43.594 10.59,19.418 18.18,43.246 22.95,71.668 4.94,28.418 7.23,61.246 7.23,98.488 0,37.598 -2.29,70.426 -7.23,98.493 -4.77,28.062 -12.36,51.539 -22.95,70.074 -10.41,18.707 -24.18,32.652 -40.77,42.008 -16.77,9.175 -36.89,13.941 -60.37,13.941 z m 234.4,-225.574 c 0,-51.012 -4.76,-95.137 -14.29,-132.383 -9.53,-37.242 -23.3,-67.777 -41.66,-91.961 -18.18,-24.18 -40.77,-42.004 -67.78,-53.476 -26.83,-11.653 -57.72,-17.477 -92.49,-17.477 -20.29,0 -38.83,2.297 -55.42,6.707 -16.42,4.59 -31.42,10.945 -44.65,19.242 -13.24,8.297 -25.07,18 -35.13,29.473 -10.24,11.297 -19.07,24.008 -26.66,37.773 h -4.23 c 0.71,-18.355 1.41,-35.301 2.12,-51.187 0.35,-6.531 0.7,-13.41 0.88,-20.473 0.18,-7.062 0.36,-13.769 0.53,-19.949 0,-6.176 0.18,-11.824 0.35,-16.766 0.18,-4.945 0.35,-8.824 0.35,-11.648 V 156.816 c 0,-15.531 2.3,-28.062 6.89,-37.597 4.77,-9.356 10.94,-16.59 18.88,-21.7073 7.95,-4.9453 17.3,-8.1211 27.72,-9.7109 10.59,-1.586 21.71,-2.293 33.35,-2.293 h 3.18 V 41.0273 h -285.05 v 44.4805 h 8.29 c 12.18,0 23.48,0.707 33.89,2.4727 10.59,1.7656 19.77,5.2929 27.36,10.5898 7.76,5.4727 14.12,13.0627 18.71,23.3007 4.59,10.234 6.89,23.473 6.89,40.063 v 584.418 c 0,15.531 -2.3,27.886 -6.89,37.418 -4.59,9.531 -10.95,16.769 -18.89,22.062 -7.94,5.121 -17.12,8.473 -27.71,10.238 -10.41,1.766 -21.53,2.645 -33.36,2.645 h -13.42 v 44.484 h 185.16 l 10.77,-95.668 h 4.23 c 7.95,16.239 16.95,30.891 26.84,43.949 10.06,13.063 21.53,24.18 34.77,33.36 13.06,9.18 27.89,16.238 44.3,21.18 16.59,4.945 35.31,7.414 55.95,7.414 34.77,0 65.66,-5.649 92.49,-17.297 27.01,-11.473 49.6,-29.301 67.78,-53.305 18.36,-23.828 32.13,-54.363 41.66,-91.254 9.53,-36.89 14.29,-80.664 14.29,-131.32 z m -562.01,0 c 0,-99.551 -21.18,-173.684 -63.37,-222.399 -42.18,-48.539 -103.96,-72.898 -185.33,-72.898 -38.3,0 -72.55,6.18 -102.9,18.18 -30.36,12.004 -56.13,30.359 -77.31,54.718 -21.19,24.536 -37.43,55.246 -48.72,92.309 -11.12,37.066 -16.77,80.488 -16.77,130.09 0,99.019 21.01,172.625 62.84,220.808 41.83,48.364 103.78,72.368 185.86,72.368 38.31,0 72.54,-5.825 102.9,-17.825 30.36,-11.828 56.13,-30.007 77.32,-54.191 21.17,-24.356 37.41,-54.891 48.71,-91.606 11.12,-36.714 16.77,-79.777 16.77,-129.554 z m -392.02,0 c 0,-39.184 2.64,-73.957 7.76,-103.965 5.12,-30.008 13.59,-55.066 25.07,-75.191 11.65,-20.122 26.65,-35.477 45,-45.715 18.54,-10.414 40.96,-15.532 67.43,-15.532 26.66,0 49.07,5.118 67.25,15.532 18.35,10.238 33.18,25.593 44.48,45.715 11.47,20.125 19.59,45.183 24.53,75.191 5.12,30.008 7.59,64.781 7.59,103.965 0,39.359 -2.64,73.781 -7.76,103.43 -5.12,29.656 -13.42,54.367 -24.89,74.308 -11.29,19.774 -26.3,34.598 -44.65,44.66 -18.54,10.059 -40.95,15.004 -67.43,15.004 -26.65,0 -49.07,-4.945 -67.25,-15.004 -18.36,-10.062 -33.18,-24.886 -44.48,-44.66 -11.47,-19.941 -19.77,-44.652 -24.89,-74.308 -5.12,-29.649 -7.76,-64.071 -7.76,-103.43 z m -164.9,282.941 6.17,-169.625 h -51.71 l -5.12,35.125 c -2.83,16.59 -5.83,30.36 -9.36,41.305 -3.35,11.117 -7.94,19.945 -13.41,26.473 -5.47,6.531 -12.36,11.121 -20.65,13.945 -8.3,2.824 -18.71,4.058 -31.07,4.058 h -86.84 V 410.633 c 0,-15.531 2.29,-27.887 6.88,-37.418 4.77,-9.531 10.95,-16.59 18.89,-21.535 7.94,-4.766 17.12,-7.942 27.71,-9.532 10.59,-1.589 21.71,-2.293 33.36,-2.293 h 24.36 v -44.48 h -311.36 v 44.48 h 13.95 c 11.82,0 22.94,0.704 33.36,2.293 10.59,1.59 19.76,4.766 27.71,9.532 7.94,4.945 14.12,12.004 18.88,21.535 4.6,9.531 6.89,21.887 6.89,37.418 V 814.48 h -87.9 c -12.01,0 -22.24,-1.234 -30.54,-4.058 -8.12,-2.824 -15.18,-7.414 -20.65,-13.945 -5.47,-6.528 -9.89,-15.356 -13.41,-26.473 -3.36,-10.945 -6.54,-24.715 -9.36,-41.305 l -5.65,-35.125 h -51.71 l 6.18,169.625 z M 1360.51,284.961 c -35.12,0 -67.6,5.473 -97.26,16.414 -29.65,10.766 -55.07,27.887 -76.43,51.363 -21.35,23.477 -37.94,53.485 -49.94,90.2 -11.83,36.71 -17.83,81.191 -17.83,133.261 0,56.481 6,103.785 17.83,141.91 12,38.125 28.41,68.661 49.59,91.786 21.36,23.121 46.25,39.535 75.02,49.066 28.77,9.711 60.01,14.473 93.37,14.473 22.07,0 44.13,-2.114 66.02,-6.352 21.88,-4.41 41.48,-10.945 59.12,-19.945 17.66,-9.004 31.95,-20.301 42.89,-33.891 11.13,-13.594 16.59,-29.476 16.59,-47.836 0,-24.531 -7.94,-41.652 -23.82,-51.715 -15.89,-10.058 -39.54,-15.004 -70.78,-15.004 0,16.59 -1.42,32.305 -4.24,47.129 -2.64,14.825 -7.41,27.711 -14.12,39.008 -6.71,11.121 -15.88,19.945 -27.53,26.301 -11.48,6.351 -26.13,9.707 -44.13,9.707 -20.3,0 -38.65,-3.883 -55.07,-11.473 -16.41,-7.59 -30.36,-20.652 -42.18,-39.359 -11.65,-18.535 -20.66,-43.602 -26.83,-74.84 -6.18,-31.418 -9.36,-70.781 -9.36,-117.91 0,-75.192 12.53,-131.141 37.6,-168.035 24.89,-36.887 65.84,-55.418 122.67,-55.418 32.83,0 61.42,6.883 85.96,20.648 24.35,13.77 42.71,31.594 54.71,53.305 5.3,-4.059 9.53,-9.707 12.89,-16.594 3.53,-6.879 5.3,-15.176 5.3,-24.707 0,-12.18 -3.89,-24.183 -11.48,-36.183 -7.59,-12.18 -18.88,-22.95 -33.89,-32.653 -15,-9.711 -33.71,-17.476 -55.95,-23.476 -22.42,-6.18 -48.71,-9.18 -78.72,-9.18 z M 831.43,816.602 c -39.184,0 -69.543,-15.887 -90.723,-47.836 -21.184,-31.946 -33.715,-78.543 -37.422,-139.793 h 243.578 c 0,27.89 -2.117,53.304 -6.175,76.425 -4.235,23.125 -10.77,42.895 -19.77,59.485 -9.004,16.594 -20.652,29.301 -35.301,38.305 -14.648,9 -32.652,13.414 -54.187,13.414 z m 13.062,-531.641 c -38.304,0 -72.722,6.531 -103.258,19.414 -30.535,13.063 -56.304,31.773 -77.308,56.66 -21.004,24.887 -37.067,55.246 -48.364,91.254 -11.121,36.008 -16.769,76.957 -16.769,122.852 0,99.019 20.297,173.328 61.07,223.457 40.598,49.949 98.492,74.836 173.684,74.836 34.066,0 64.777,-5.293 92.137,-15.883 27.179,-10.77 50.304,-26.653 69.191,-47.836 19.065,-21.36 33.535,-47.656 43.775,-79.25 10.06,-31.418 15.18,-68.129 15.18,-109.789 V 571.965 H 701.168 c 0.703,-38.481 4.59,-71.668 11.652,-99.555 7.055,-27.711 17.297,-50.48 30.532,-68.48 13.238,-17.828 29.48,-31.067 48.894,-39.539 19.234,-8.477 41.477,-12.711 66.719,-12.711 18.18,0 35.125,2.121 50.832,6.355 15.707,4.059 30.004,9.531 42.715,16.414 12.711,6.883 24.004,14.828 33.89,23.653 9.883,8.648 17.828,18.003 24.008,27.539 4.76,-1.946 9.35,-6.356 13.76,-12.887 4.24,-6.531 6.36,-14.297 6.36,-23.301 0,-10.594 -3.71,-22.062 -11.3,-34.418 -7.59,-12.18 -19.238,-23.476 -34.593,-33.89 -15.532,-10.235 -34.949,-18.883 -58.246,-25.77 -23.301,-6.887 -50.657,-10.414 -81.899,-10.414 z M 213.684,639.738 h 56.48 c 31.949,0 59.484,3.356 82.074,10.063 22.774,6.707 41.481,17.652 55.953,32.652 14.477,15.004 25.067,34.246 31.774,57.899 6.707,23.648 10.058,52.066 10.058,85.605 0,29.652 -2.82,55.418 -8.824,77.309 -5.82,21.886 -15.355,40.062 -28.418,54.543 -13.062,14.472 -30.004,25.238 -50.832,32.296 -20.828,7.059 -46.422,10.595 -76.254,10.595 H 213.684 V 639.738" /></g></g></svg>