<svg xmlns="http://www.w3.org/2000/svg" width="81" height="81"><rect width="100%" height="100%" fill="none"/><g class="currentLayer"><path fill="#E2E2E2" d="M40.6 0C18.2 0 0 18.2 0 40.6 0 63 18.2 81.2 40.6 81.2 63 81.2 81.2 63 81.2 40.6 81.2 18.2 63 0 40.6 0zm0 71.5c-17 0-30.8-13.8-30.8-30.8S23.6 9.9 40.6 9.9s30.8 13.8 30.8 30.8c-.1 16.9-13.9 30.8-30.8 30.8z"/><path fill="#FFB233" d="M35.6 46.6c1.4 1.1 3 1.9 4.9 1.9 1.9 0 3.6-.8 4.9-1.9V34.8c-1.4-1.1-3-1.9-4.9-1.9-1.9 0-3.6.8-4.9 1.9v11.8zm5-26.8c-5.8 0-11 2.3-14.8 6.1l7 7c2-2 4.8-3.2 7.8-3.2 3.1 0 5.8 1.2 7.8 3.2l7-7c-3.8-3.8-9.1-6.1-14.8-6.1zm7.8 28.7c-2 2-4.8 3.2-7.8 3.2-3.1 0-5.8-1.2-7.8-3.2l-7 7c3.8 3.8 9 6.1 14.8 6.1 5.8 0 11-2.3 14.8-6.1l-7-7z"/><path fill="#FFB233" d="M40.5 81.3c.1-.4 0-.8 0-1.2 0-4.5-3.1-8.3-7.2-9.5-11.9-2.9-21-12.8-23-25h20.4c-.7-1.5-1.2-3.2-1.2-4.9 0-1.8.5-3.4 1.2-4.9H10.3c2.4-14.6 15-25.9 30.3-25.9 5.8 0 11.3 1.6 16 4.5 1.5.9 3.2 1.4 5.1 1.4 3.2 0 6-1.5 7.8-3.8C62.1 4.6 52 .1 40.7.1 18.3.1.1 18.3.1 40.7c-.2 22.5 18 40.6 40.4 40.6z"/></g></svg>